<?xml version="1.0" encoding="utf-8"?>
<!-- Generator: Adobe Illustrator 24.2.1, SVG Export Plug-In . SVG Version: 6.00 Build 0)  -->
<svg version="1.1" id="Layer_1" xmlns="http://www.w3.org/2000/svg" xmlns:xlink="http://www.w3.org/1999/xlink" x="0px" y="0px"
	 viewBox="0 0 650 650" style="enable-background:new 0 0 650 650;" xml:space="preserve">
<style type="text/css">
	.st0{fill:#FFFFFF;}
</style>
<g transform="translate(0.000000,650.000000) scale(0.100000,-0.100000)">
	<path class="st0" d="M2525,6163c-151-14-409-73-573-132c-202-72-586-267-649-329c-93-92-257-386-357-640c-65-165-113-392-83-392
		c7,0,69,25,138,56c457,204,915,328,1401,379c194,20,591,20,786,0c669-70,1323-302,1894-674l123-80l3,52c8,124-36,384-94,556
		c-135,406-419,740-769,905c-242,115-761,245-1160,291C3066,6169,2644,6174,2525,6163z"/>
	<path class="st0" d="M3754,4818c271-380,443-811,502-1258c23-177,15-430-20-596c-127-607-554-1069-1281-1388c-82-37-159-71-170-76
		c-25-13,159-5,370,16c469,46,933,145,1340,284c200,69,424,160,454,186c34,28,180,280,296,510c104,207,179,394,223,564
		c31,121,35,152,40,303c5,177-2,240-40,357c-48,150-130,281-257,413c-224,233-536,408-1016,573c-126,44-429,134-448,134
		C3742,4840,3745,4830,3754,4818z"/>
	<path class="st0" d="M1024,4590c-65-33-213-148-234-182c-28-47-143-398-189-578c-82-322-111-539-111-827c0-244,18-396,91-773
		c28-146,58-303,66-350c15-78,19-88,58-126c100-97,281-165,578-217c75-14,137-22,137-18c0,3-40,87-89,186
		c-460,932-557,1815-300,2751c22,81,38,148,36,150C1066,4608,1046,4601,1024,4590z"/>
	<path class="st0" d="M5635,2736c-5-2-42-9-82-16l-71-12l-48-121c-61-159-145-328-228-459c-36-59-66-109-66-113c0-10,80,47,276,196
		c326,247,456,321,733,412c89,29,163,56,166,59s-45,16-107,28c-93,19-153,23-338,26C5746,2738,5641,2738,5635,2736z"/>
	<path class="st0" d="M1090,2697c0-2,18-67,41-143c101-348,232-693,350-926l60-117l67-15c141-31,231-38,425-33c260,6,463,46,723,142
		c135,50,416,189,544,270c209,132,441,330,545,465c68,88,133,220,109,220c-3,0-85-27-183-59c-280-94-556-156-810-181
		c-152-15-486-12-636,5c-350,40-713,145-1082,311C1108,2697,1090,2704,1090,2697z"/>
	<path class="st0" d="M4735,1744c-491-180-1076-323-1624-399c-469-64-1054-72-1471-19c-466,58-860,191-1023,342c-26,25-49,43-51,41
		c-67-80-190-283-266-441C84,819,104,509,355,394c136-63,254-66,650-19c927,109,1782,311,2486,588c568,223,1045,490,1346,755
		c62,55,83,83,60,81C4890,1799,4818,1774,4735,1744z"/>
</g>
</svg>
