<?xml version="1.0" encoding="utf-8"?>
<!-- Generator: Adobe Illustrator 24.2.1, SVG Export Plug-In . SVG Version: 6.00 Build 0)  -->
<svg version="1.1" id="Capa_1" xmlns="http://www.w3.org/2000/svg" xmlns:xlink="http://www.w3.org/1999/xlink" x="0px" y="0px"
	 viewBox="0 0 330.2 330.2" style="enable-background:new 0 0 330.2 330.2;" xml:space="preserve">
<style type="text/css">
	.st0{fill:#BE6D35;}
</style>
<path class="st0" d="M324.4,129.8l-41.3-33.7V42.3c0-6.1-4.9-11-11-11h-26c-6.1,0-11,4.9-11,11V57l-55.2-45c-4-3.3-9.3-5-14.8-5
	c-5.5,0-10.8,1.8-14.8,5L5.8,129.8c-6.6,5.4-6.2,10-5.4,12.3c0.8,2.3,3.4,6.2,11.9,6.2h19.8v154.9c0,11.1,9,20.1,20,20.1h62.5
	c10.9,0,19.5-8.8,19.5-20.1v-63.5c0-5.4,5-10.4,10.5-10.4h42c5.2,0,9.5,4.7,9.5,10.4v63.5c0,10.9,9.4,20.1,20.5,20.1h61.5
	c11,0,20-9,20-20.1V148.3h19.8c8.4,0,11.1-3.9,11.9-6.2C330.6,139.8,331,135.2,324.4,129.8z"/>
</svg>
