<?xml version="1.0" encoding="utf-8"?>
<!-- Generator: Adobe Illustrator 24.2.1, SVG Export Plug-In . SVG Version: 6.00 Build 0)  -->
<svg version="1.1" id="Layer_1" xmlns="http://www.w3.org/2000/svg" xmlns:xlink="http://www.w3.org/1999/xlink" x="0px" y="0px"
	 viewBox="0 0 200 200" style="enable-background:new 0 0 200 200;" xml:space="preserve">
<style type="text/css">
	.st0{fill:#BE6D35;}
</style>
<g transform="translate(0.000000,200.000000) scale(0.100000,-0.100000)">
	<path class="st0" d="M744,1726c-84-19-230-92-255-127c-27-38-85-166-94-206c-8-39-3-40,60-13c298,128,634,118,915-26
		c36-18,79-42,95-53c17-12,33-21,38-21c12,0,8,64-9,121c-51,173-150,259-358,310C1030,1737,828,1745,744,1726z"/>
	<path class="st0" d="M1140,1393c0-3,9-18,20-33c12-16,32-55,46-87c100-225,79-426-59-572c-40-42-133-105-200-137l-52-25l83,6
		c113,8,248,37,366,79c54,19,99,36,101,38c22,28,91,160,111,213c36,93,39,210,7,270c-33,64-115,133-206,175
		C1278,1357,1140,1403,1140,1393z"/>
	<path class="st0" d="M409,1316c-31-21-39-36-62-113c-40-133-46-170-47-273c0-115,35-305,61-331c28-28,169-64,169-44
		c0,3-11,27-24,53c-37,75-73,189-91,292c-20,112-15,243,14,363c10,42,18,77,17,77S429,1329,409,1316z"/>
	<path class="st0" d="M1593,850c-13-5-23-15-23-22s-15-43-34-80c-19-38-32-68-31-68c2,0,34,23,70,50c72,54,117,80,180,101l40,13
		l-30,7C1721,861,1618,860,1593,850z"/>
	<path class="st0" d="M460,825c0-19,63-193,89-243c19-36,26-41,67-48c156-23,364,50,497,175c46,43,86,101,70,101c-5,0-44-12-88-27
		c-64-21-106-27-206-31c-136-5-232,12-358,64C460,844,460,844,460,825z"/>
	<path class="st0" d="M1330,584c-197-69-489-110-670-94c-150,13-279,48-323,88c-18,16-20,16-34-3c-33-43-86-169-91-213
		c-3-37,0-53,17-74c37-46,74-52,224-33c323,39,585,116,807,237c80,44,170,107,170,120c0,4-1,7-2,7C1426,618,1382,603,1330,584z"/>
</g>
</svg>
